<svg width="32" height="32" viewBox="0 0 32 32" fill="none" xmlns="http://www.w3.org/2000/svg">
  <!-- 渐变定义 -->
  <defs>
    <linearGradient id="moonGradient" x1="0%" y1="0%" x2="100%" y2="100%">
      <stop offset="0%" style="stop-color:#8E2DE2"/>
      <stop offset="100%" style="stop-color:#4A00E0"/>
    </linearGradient>
    <!-- 星星的渐变 -->
    <linearGradient id="starGradient" x1="0%" y1="0%" x2="100%" y2="100%">
      <stop offset="0%" style="stop-color:#FFD700"/>
      <stop offset="100%" style="stop-color:#FFA500"/>
    </linearGradient>
  </defs>

  <!-- 背景圆 -->
  <circle cx="16" cy="16" r="16" fill="#1a1a1a"/>
  
  <!-- 月亮 -->
  <path d="M22 16c0 4.4-3.6 8-8 8-4.4 0-8-3.6-8-8s3.6-8 8-8c.5 0 1 .1 1.5.2C13.4 9.5 12 12.1 12 15c0 4.4 3.6 8 8 8 1.2 0 2.3-.3 3.3-.8-1.5 1.1-3.3 1.8-5.3 1.8z" 
        fill="url(#moonGradient)"/>
  
  <!-- 星星 -->
  <circle cx="24" cy="8" r="2" fill="url(#starGradient)">
    <animate attributeName="opacity" values="1;0.3;1" dur="2s" repeatCount="indefinite"/>
  </circle>
  <circle cx="8" cy="10" r="1.5" fill="url(#starGradient)">
    <animate attributeName="opacity" values="0.3;1;0.3" dur="2.5s" repeatCount="indefinite"/>
  </circle>
  <circle cx="20" cy="6" r="1" fill="url(#starGradient)">
    <animate attributeName="opacity" values="0.5;1;0.5" dur="1.5s" repeatCount="indefinite"/>
  </circle>
</svg> 